<svg xmlns="http://www.w3.org/2000/svg" width="1100" height="720" viewBox="0 0 1100 720">
<rect width="100%" height="100%" fill="#101820"/>
<text x="550.0" y="42" text-anchor="middle" fill="white" font-family="Arial" font-size="24" font-weight="bold">What drives traffic forecasts across all horizons?</text>
<text x="245" y="110" text-anchor="end" fill="#dbe7ef" font-family="Arial" font-size="16">lag_96</text>
<rect x="260" y="90" width="1.9" height="28" rx="4" fill="#00b4d8"/>
<text x="271.9" y="110" fill="white" font-family="Arial" font-size="15">0.2%</text>
<text x="245" y="156" text-anchor="end" fill="#dbe7ef" font-family="Arial" font-size="16">day_of_week</text>
<rect x="260" y="136" width="2.1" height="28" rx="4" fill="#00b4d8"/>
<text x="272.1" y="156" fill="white" font-family="Arial" font-size="15">0.2%</text>
<text x="245" y="202" text-anchor="end" fill="#dbe7ef" font-family="Arial" font-size="16">rolling_mean_8</text>
<rect x="260" y="182" width="4.5" height="28" rx="4" fill="#00b4d8"/>
<text x="274.5" y="202" fill="white" font-family="Arial" font-size="15">0.5%</text>
<text x="245" y="248" text-anchor="end" fill="#dbe7ef" font-family="Arial" font-size="16">approach</text>
<rect x="260" y="228" width="6.6" height="28" rx="4" fill="#00b4d8"/>
<text x="276.6" y="248" fill="white" font-family="Arial" font-size="15">0.7%</text>
<text x="245" y="294" text-anchor="end" fill="#dbe7ef" font-family="Arial" font-size="16">rolling_mean_96</text>
<rect x="260" y="274" width="6.9" height="28" rx="4" fill="#00b4d8"/>
<text x="276.9" y="294" fill="white" font-family="Arial" font-size="15">0.7%</text>
<text x="245" y="340" text-anchor="end" fill="#dbe7ef" font-family="Arial" font-size="16">is_weekend</text>
<rect x="260" y="320" width="9.7" height="28" rx="4" fill="#00b4d8"/>
<text x="279.7" y="340" fill="white" font-family="Arial" font-size="15">1.0%</text>
<text x="245" y="386" text-anchor="end" fill="#dbe7ef" font-family="Arial" font-size="16">vehicle_count</text>
<rect x="260" y="366" width="11.3" height="28" rx="4" fill="#00b4d8"/>
<text x="281.3" y="386" fill="white" font-family="Arial" font-size="15">1.2%</text>
<text x="245" y="432" text-anchor="end" fill="#dbe7ef" font-family="Arial" font-size="16">lag_1344</text>
<rect x="260" y="412" width="15.9" height="28" rx="4" fill="#00b4d8"/>
<text x="285.9" y="432" fill="white" font-family="Arial" font-size="15">1.7%</text>
<text x="245" y="478" text-anchor="end" fill="#dbe7ef" font-family="Arial" font-size="16">lag_672</text>
<rect x="260" y="458" width="24.3" height="28" rx="4" fill="#00b4d8"/>
<text x="294.3" y="478" fill="white" font-family="Arial" font-size="15">2.5%</text>
<text x="245" y="524" text-anchor="end" fill="#dbe7ef" font-family="Arial" font-size="16">rolling_mean_16</text>
<rect x="260" y="504" width="37.8" height="28" rx="4" fill="#00b4d8"/>
<text x="307.8" y="524" fill="white" font-family="Arial" font-size="15">3.9%</text>
<text x="245" y="570" text-anchor="end" fill="#dbe7ef" font-family="Arial" font-size="16">quarter_hour</text>
<rect x="260" y="550" width="117.1" height="28" rx="4" fill="#00b4d8"/>
<text x="387.1" y="570" fill="white" font-family="Arial" font-size="15">12.1%</text>
<text x="245" y="616" text-anchor="end" fill="#dbe7ef" font-family="Arial" font-size="16">lag_671</text>
<rect x="260" y="596" width="720.0" height="28" rx="4" fill="#00b4d8"/>
<text x="990.0" y="616" fill="white" font-family="Arial" font-size="15">74.5%</text>
</svg>